<?xml version="1.0" standalone="no"?>
<!DOCTYPE svg PUBLIC "-//W3C//DTD SVG 20010904//EN"
 "http://www.w3.org/TR/2001/REC-SVG-20010904/DTD/svg10.dtd">
<svg version="1.0" xmlns="http://www.w3.org/2000/svg"
 width="359.000000pt" height="371.000000pt" viewBox="0 0 359.000000 371.000000"
 preserveAspectRatio="xMidYMid meet">

<g transform="translate(0.000000,371.000000) scale(0.100000,-0.100000)"
fill="#000000" stroke="none">
<path d="M1580 3674 c-115 -16 -320 -64 -378 -90 -20 -9 -46 -19 -57 -23 -41
-15 -200 -96 -203 -103 -2 -5 -10 -8 -18 -8 -8 0 -14 -4 -14 -10 0 -5 -6 -10
-14 -10 -8 0 -21 -6 -28 -14 -8 -7 -27 -20 -43 -29 -17 -8 -42 -26 -57 -40
-15 -14 -31 -27 -36 -28 -14 -5 -130 -107 -172 -150 -66 -69 -120 -128 -120
-133 0 -3 -13 -20 -30 -38 -16 -18 -30 -38 -30 -45 0 -7 -4 -13 -10 -13 -9 0
-52 -66 -89 -138 -8 -15 -17 -29 -22 -32 -13 -9 -106 -215 -137 -305 -159
-463 -128 -976 84 -1425 21 -44 42 -80 46 -80 4 0 8 -6 8 -14 0 -8 6 -21 14
-28 8 -8 26 -38 40 -66 15 -29 31 -52 36 -52 6 0 10 -7 10 -15 0 -8 4 -15 9
-15 5 0 12 -8 15 -18 4 -10 20 -34 37 -53 17 -19 49 -56 72 -83 23 -27 48 -54
56 -60 7 -6 39 -37 70 -68 32 -32 63 -58 69 -58 7 0 12 -3 12 -8 0 -4 18 -18
40 -32 22 -13 42 -30 44 -36 2 -6 25 -21 50 -34 25 -12 46 -25 46 -30 0 -4 12
-13 27 -19 37 -16 87 -42 93 -51 5 -7 117 -60 126 -60 3 0 20 -6 37 -14 62
-28 124 -46 247 -76 430 -101 882 -30 1270 200 30 18 57 35 60 39 3 4 21 16
41 28 40 23 74 49 98 75 8 10 20 18 26 18 6 0 29 19 51 43 22 23 51 51 65 63
31 27 153 162 158 176 2 6 11 19 20 28 31 35 79 105 85 128 4 12 11 22 15 22
10 0 123 225 146 290 45 125 66 197 81 266 72 352 54 685 -56 1014 -47 138
-176 392 -235 463 -8 9 -15 20 -15 23 0 2 -5 10 -10 17 -6 7 -19 23 -30 37
-119 150 -321 336 -417 387 -18 9 -33 20 -33 25 0 4 -7 8 -15 8 -8 0 -15 4
-15 9 0 5 -10 13 -22 17 -12 3 -26 10 -32 15 -32 26 -175 91 -281 128 -260 91
-525 120 -785 85z m520 -53 c64 -11 164 -36 223 -55 111 -36 357 -152 357
-167 0 -5 5 -9 10 -9 12 0 87 -48 110 -70 9 -8 37 -31 63 -50 53 -38 194 -176
242 -235 17 -21 38 -45 48 -54 9 -8 17 -19 17 -24 0 -7 9 -20 38 -52 6 -7 12
-17 12 -22 0 -4 14 -26 30 -47 17 -22 30 -46 30 -53 0 -7 3 -13 8 -13 4 0 12
-9 17 -20 6 -10 25 -50 44 -87 42 -84 64 -141 101 -263 32 -105 66 -258 59
-264 -4 -4 -106 -9 -135 -7 -6 1 -24 33 -39 72 -16 39 -31 67 -33 61 -2 -6
-11 -39 -20 -74 l-17 -63 -75 -8 c-41 -4 -80 -5 -85 -3 -6 2 -17 32 -24 67
-24 108 -90 271 -141 349 -66 101 -111 162 -145 197 -22 22 -47 49 -56 60 -17
20 -74 69 -115 99 -14 10 -35 27 -46 36 -11 10 -29 20 -39 23 -11 4 -19 11
-19 16 0 5 -6 9 -14 9 -7 0 -19 6 -25 14 -7 8 -25 18 -41 21 -16 3 -33 12 -39
19 -6 8 -33 21 -59 30 -26 10 -56 22 -67 27 -53 25 -212 60 -321 71 -226 22
-474 -22 -674 -120 -52 -25 -99 -50 -105 -55 -5 -4 -23 -17 -40 -27 -63 -41
-69 -45 -81 -55 -7 -5 -27 -21 -45 -35 -148 -114 -320 -354 -383 -535 -101
-294 -101 -566 0 -855 26 -76 93 -212 107 -218 4 -2 7 -10 7 -17 0 -7 4 -15 8
-17 5 -1 24 -28 44 -58 47 -74 192 -220 276 -277 18 -13 38 -28 45 -34 34 -30
177 -104 259 -135 142 -52 315 -84 460 -84 112 0 305 28 379 55 24 9 59 21 78
26 42 13 191 89 209 106 7 7 19 13 26 13 7 0 24 10 37 23 14 12 38 30 54 41
17 10 41 29 55 42 80 74 146 144 168 176 13 21 29 38 33 38 5 0 9 7 9 15 0 8
5 15 10 15 6 0 10 5 10 10 0 6 5 16 10 23 38 45 64 94 118 222 66 155 101 391
83 557 -6 55 -9 103 -6 106 3 3 31 -11 62 -31 66 -41 69 -52 40 -145 l-16 -53
64 50 65 51 55 -31 c30 -17 58 -35 61 -40 3 -5 9 -9 14 -9 5 0 -4 31 -19 69
-16 37 -26 72 -22 77 11 16 88 74 98 74 13 0 23 -121 23 -262 0 -220 -36 -425
-111 -635 -20 -56 -119 -265 -129 -273 -4 -3 -17 -26 -30 -52 -13 -27 -27 -48
-31 -48 -4 0 -10 -8 -13 -17 -4 -10 -22 -36 -41 -58 -19 -22 -35 -44 -35 -48
0 -5 -15 -23 -32 -42 -18 -18 -54 -54 -79 -81 -25 -27 -72 -71 -105 -99 -32
-27 -66 -57 -75 -67 -9 -10 -21 -18 -26 -18 -6 0 -18 -9 -28 -20 -11 -12 -34
-28 -52 -37 -18 -8 -33 -19 -33 -24 0 -5 -5 -9 -11 -9 -6 0 -23 -9 -39 -20
-95 -68 -316 -156 -489 -196 -58 -13 -176 -29 -261 -35 -132 -10 -176 -9 -293
5 -182 21 -345 63 -487 124 -14 6 -49 21 -77 33 -29 12 -53 25 -53 29 0 4 -15
14 -32 21 -18 7 -39 19 -47 26 -7 8 -31 23 -52 34 -22 11 -49 27 -60 37 -11 9
-30 25 -41 34 -12 10 -24 18 -28 18 -6 0 -74 62 -165 151 -58 57 -115 120
-115 127 0 4 -14 23 -30 42 -16 19 -34 40 -40 47 -5 7 -10 15 -10 19 0 4 -11
22 -25 40 -14 18 -25 35 -25 39 0 3 -16 31 -35 61 -19 30 -35 56 -35 59 0 2
-16 37 -36 77 -184 379 -214 923 -73 1340 36 107 48 137 97 233 78 155 90 176
120 214 18 22 32 43 32 46 0 6 13 23 43 56 9 10 17 21 17 24 0 13 172 189 222
228 18 14 42 34 53 44 11 10 35 28 53 38 17 11 32 23 32 27 0 4 7 8 15 8 8 0
15 5 15 10 0 6 6 10 13 10 6 0 25 11 41 25 16 14 35 25 42 25 7 0 14 4 16 9 7
19 270 129 383 160 62 18 205 43 305 55 81 10 340 -3 450 -23z m-40 -521 c131
-28 242 -66 345 -118 61 -31 112 -59 113 -64 2 -4 10 -8 18 -8 8 0 17 -7 20
-15 4 -8 11 -15 18 -15 17 0 163 -135 216 -199 19 -24 41 -49 48 -56 6 -8 12
-18 12 -24 0 -6 4 -11 9 -11 5 0 13 -9 16 -20 3 -11 12 -26 18 -32 7 -7 35
-60 64 -118 57 -116 98 -256 109 -370 3 -41 9 -79 12 -85 15 -24 -13 -276 -43
-390 -30 -114 -83 -238 -135 -314 -22 -33 -40 -65 -40 -70 0 -6 -3 -11 -7 -11
-5 0 -19 -17 -33 -38 -29 -44 -124 -138 -200 -199 -30 -24 -60 -48 -67 -53
-43 -35 -225 -125 -313 -155 -152 -52 -272 -69 -455 -62 -82 3 -181 13 -220
21 -89 20 -256 82 -318 118 -26 15 -51 28 -56 28 -8 0 -112 72 -149 105 -78
67 -198 196 -243 263 -126 185 -196 399 -206 636 -10 219 23 380 119 581 38
80 58 116 69 125 4 3 15 19 25 36 30 48 83 111 149 174 100 96 127 119 168
139 15 8 27 18 27 23 0 4 6 8 14 8 8 0 21 6 28 13 18 17 163 86 218 104 181
58 283 73 455 68 77 -2 165 -9 195 -15z m1270 -967 c0 -7 -7 -13 -15 -13 -15
0 -21 31 -8 43 8 8 23 -12 23 -30z m24 -65 c7 -20 5 -30 -7 -42 -31 -31 -84
-5 -72 36 15 46 64 50 79 6z m66 17 c-7 -8 -19 -15 -26 -15 -8 0 -14 7 -14 15
0 10 10 15 26 15 22 0 25 -2 14 -15z m-170 -10 c0 -8 -6 -15 -14 -15 -7 0 -19
7 -26 15 -11 13 -8 15 14 15 16 0 26 -5 26 -15z m140 -85 c8 -15 8 -20 -2 -20
-22 0 -41 17 -34 29 11 17 24 13 36 -9z m-106 1 c7 -10 -22 -37 -30 -28 -9 8
3 37 15 37 5 0 12 -4 15 -9z"/>
<path d="M1801 3531 c-14 -4 -26 -12 -29 -19 -5 -16 28 -28 37 -13 4 7 14 11
21 9 8 -2 16 5 18 15 4 18 -6 20 -47 8z"/>
<path d="M1470 3478 c1 -35 45 -180 53 -172 12 12 8 46 -14 122 -22 71 -39 94
-39 50z"/>
<path d="M1823 3464 c-3 -10 -20 -30 -37 -46 -26 -23 -29 -29 -16 -38 8 -6 26
-8 40 -6 20 4 28 -1 35 -17 9 -19 20 -23 83 -27 41 -3 79 -2 85 2 6 3 20 0 31
-7 12 -7 53 -20 91 -29 39 -8 103 -27 144 -40 40 -14 77 -23 82 -21 4 3 13 31
20 63 6 31 18 67 26 80 12 19 12 25 -1 43 -16 23 -25 15 -32 -29 -2 -15 -9
-48 -15 -74 -9 -41 -13 -46 -29 -38 -15 8 -16 16 -8 62 5 29 14 61 20 71 13
25 -8 52 -28 36 -8 -6 -12 -15 -9 -19 2 -4 0 -35 -6 -69 -9 -51 -14 -61 -31
-61 -16 0 -19 5 -14 24 7 28 -2 58 -15 50 -5 -3 -9 -18 -9 -33 0 -25 -3 -28
-24 -24 -20 4 -26 12 -28 39 -4 44 -22 49 -26 8 -3 -27 -6 -30 -27 -26 -17 3
-28 15 -35 38 -7 19 -15 34 -19 34 -4 0 -22 -11 -41 -25 -45 -33 -58 -32 -62
7 -2 17 -9 34 -17 36 -11 4 -13 -2 -8 -27 l7 -31 -45 0 -44 0 -7 50 c-7 54
-20 72 -31 44z"/>
<path d="M1395 3434 c15 -37 20 -74 9 -74 -3 0 -27 19 -54 41 -33 27 -55 39
-66 35 -14 -6 -15 -9 -2 -28 8 -12 28 -26 45 -30 16 -4 40 -19 52 -32 23 -24
23 -26 7 -50 -29 -45 -14 -59 39 -34 25 11 34 41 15 53 -5 3 -10 40 -10 81 0
72 -1 74 -25 74 -25 0 -25 0 -10 -36z"/>
<path d="M2144 3449 c-8 -14 18 -31 30 -19 9 9 0 30 -14 30 -5 0 -12 -5 -16
-11z"/>
<path d="M2228 3442 c-16 -2 -28 -10 -28 -17 0 -19 20 -29 32 -17 6 6 16 8 23
6 18 -7 28 12 12 23 -6 5 -24 7 -39 5z"/>
<path d="M1626 3394 c-12 -31 -6 -56 14 -61 11 -3 20 -9 20 -12 0 -17 -49 -51
-73 -51 -15 0 -27 -4 -27 -10 0 -5 18 -10 39 -10 32 0 44 6 65 31 29 34 31 51
15 98 -12 33 -42 43 -53 15z"/>
<path d="M1167 3302 c-20 -22 -22 -53 -5 -70 17 -17 -3 -14 -26 3 -31 24 -44
18 -57 -25 -7 -22 -23 -47 -38 -56 -25 -17 -26 -16 -46 11 -11 16 -35 45 -52
64 -29 33 -32 34 -33 14 0 -12 6 -26 13 -30 6 -4 29 -29 50 -55 45 -56 67 -60
109 -18 16 17 38 30 49 30 41 0 159 79 159 106 0 19 -5 18 -47 -10 -36 -25
-63 -25 -63 -1 0 8 16 19 35 25 19 6 33 16 30 21 -10 16 -61 10 -78 -9z"/>
<path d="M1925 3310 c-3 -6 -10 -8 -15 -5 -4 3 -13 -2 -19 -9 -16 -19 0 -27
38 -20 21 5 31 12 29 22 -4 19 -24 27 -33 12z"/>
<path d="M850 3227 c0 -7 21 -30 46 -51 25 -21 54 -52 64 -69 16 -27 17 -32 4
-52 -8 -12 -26 -27 -41 -34 -24 -11 -30 -10 -45 9 -10 12 -18 28 -18 36 0 8
-4 14 -9 14 -6 0 -6 -12 0 -32 5 -18 9 -34 9 -35 0 -1 7 -9 16 -17 23 -24 60
-19 93 12 49 45 46 71 -17 143 -27 29 -51 62 -55 72 -7 20 -47 23 -47 4z"/>
<path d="M2575 3208 c-2 -7 -5 -26 -7 -43 -3 -26 -9 -31 -42 -40 -30 -7 -44
-6 -68 8 -45 26 -55 20 -23 -13 50 -52 131 -35 160 33 13 31 10 67 -6 67 -6 0
-12 -6 -14 -12z"/>
<path d="M2792 3133 c4 -21 33 -25 33 -3 0 8 -8 16 -18 18 -14 3 -18 -1 -15
-15z"/>
<path d="M2670 3123 c-17 -12 -21 -22 -16 -44 5 -28 4 -29 -31 -29 -20 0 -45
7 -55 17 -29 26 -31 9 -2 -20 28 -29 70 -35 105 -16 17 8 28 3 68 -30 27 -23
53 -41 57 -41 5 0 26 27 47 59 21 33 45 62 53 65 18 7 19 59 2 54 -7 -3 -18
-13 -23 -24 -10 -19 -65 -105 -71 -113 -2 -2 -10 2 -19 9 -13 11 -13 15 0 33
8 12 15 30 15 40 0 15 -3 16 -20 7 -11 -6 -20 -20 -20 -30 0 -11 -4 -20 -9
-20 -17 0 -35 33 -33 60 4 34 -18 44 -48 23z"/>
<path d="M2934 3072 c-19 -12 -116 -133 -111 -138 9 -9 37 9 60 39 13 18 36
49 51 70 26 34 26 47 0 29z"/>
<path d="M650 3036 c0 -8 9 -21 20 -29 11 -8 40 -33 65 -56 48 -45 55 -48 55
-27 0 13 -120 126 -134 126 -3 0 -6 -6 -6 -14z"/>
<path d="M586 3001 c-4 -5 25 -30 64 -56 38 -26 70 -50 70 -53 -1 -13 -46 -39
-80 -47 -19 -4 -45 -13 -57 -21 -26 -16 -31 -54 -8 -54 8 0 15 4 15 8 0 5 11
14 25 20 33 15 32 2 -4 -32 -25 -24 -31 -26 -55 -15 -14 7 -29 9 -32 6 -12
-12 6 -37 26 -37 23 0 24 -3 8 -29 -9 -15 -19 -18 -51 -13 -31 4 -39 2 -35 -9
2 -8 18 -16 34 -17 39 -5 52 -18 60 -57 8 -42 -18 -92 -48 -97 -19 -2 -23 -9
-23 -38 0 -24 5 -35 15 -35 9 0 15 10 15 26 1 17 14 37 39 59 40 35 42 50 21
130 -5 21 8 43 84 137 50 62 91 115 91 117 0 2 -25 21 -56 42 -31 21 -60 46
-65 56 -10 19 -44 24 -53 9z"/>
<path d="M3041 2961 c-8 -5 -11 -16 -8 -26 4 -9 11 -14 16 -10 5 3 12 1 16 -5
11 -18 35 -11 35 10 0 13 -7 20 -19 20 -11 0 -21 4 -23 10 -2 5 -9 6 -17 1z"/>
<path d="M2940 2885 c-7 -8 -3 -18 10 -30 16 -14 19 -26 15 -47 -6 -23 1 -37
37 -81 24 -28 46 -54 51 -55 4 -2 17 -26 28 -53 12 -28 30 -54 40 -60 11 -5
19 -17 19 -27 0 -27 82 -203 93 -199 28 9 48 132 25 155 -25 25 -36 13 -32
-30 l5 -43 -22 39 c-20 38 -20 41 -5 68 21 35 15 45 -33 58 -25 7 -42 18 -50
36 -6 15 -9 29 -6 32 3 3 5 2 5 -3 0 -4 7 -2 15 5 20 16 19 33 -3 60 -19 24
-48 19 -55 -8 -3 -15 -5 -15 -12 1 -5 13 -2 22 14 33 11 8 21 22 21 30 0 24
-30 16 -40 -11 -5 -14 -11 -25 -14 -25 -7 0 -46 66 -46 78 0 6 14 27 30 45 17
19 30 36 30 38 0 10 -112 4 -120 -6z m250 -339 c0 -3 -4 -8 -10 -11 -5 -3 -10
-1 -10 4 0 6 5 11 10 11 6 0 10 -2 10 -4z"/>
<path d="M531 2867 c-12 -15 -5 -27 16 -27 7 0 13 9 13 20 0 23 -13 26 -29 7z"/>
<path d="M2940 2709 c0 -15 5 -19 15 -15 9 3 15 0 15 -9 0 -15 21 -21 33 -9 9
10 -4 34 -19 34 -8 0 -14 5 -14 10 0 6 -7 10 -15 10 -9 0 -15 -9 -15 -21z"/>
<path d="M610 2678 c0 -7 -3 -23 -6 -35 -5 -19 -2 -23 16 -23 17 0 21 4 17 20
-3 10 0 21 6 23 14 4 -1 27 -19 27 -8 0 -14 -6 -14 -12z"/>
<path d="M392 2538 c3 -7 17 -14 31 -16 32 -4 31 -2 10 -47 -18 -38 -33 -42
-92 -25 -39 11 -54 4 -30 -13 9 -7 20 -27 23 -45 4 -17 12 -34 17 -38 14 -8
39 15 39 37 0 12 9 19 28 21 21 2 32 13 49 48 12 25 22 48 23 52 0 10 -60 38
-82 38 -11 0 -18 -5 -16 -12z"/>
<path d="M247 2473 c-7 -13 -3 -68 6 -65 4 1 11 2 16 2 5 0 9 16 9 35 0 23 -5
35 -13 35 -8 0 -16 -3 -18 -7z"/>
<path d="M3130 2410 c0 -13 7 -20 20 -20 13 0 20 7 20 20 0 13 -7 20 -20 20
-13 0 -20 -7 -20 -20z"/>
<path d="M300 2168 l-25 -73 -84 -5 -85 -5 62 -38 c34 -21 64 -42 67 -47 3 -4
-6 -38 -19 -74 -13 -36 -21 -66 -17 -66 3 0 33 18 65 39 33 22 64 37 70 34 6
-4 38 -24 70 -46 44 -30 57 -35 52 -21 -11 25 -46 126 -46 130 0 2 28 23 63
46 l62 43 -79 5 -79 5 -24 65 c-12 36 -24 68 -26 73 -1 4 -13 -25 -27 -65z
m39 -70 c1 -5 -6 -8 -14 -8 -16 0 -19 9 -8 36 6 16 7 16 14 -2 4 -10 8 -22 8
-26z m-79 -47 c0 -18 -17 -20 -36 -6 -18 14 -18 14 9 15 15 0 27 -4 27 -9z
m105 -18 c10 -43 -32 -67 -70 -40 -13 10 -16 21 -11 40 5 23 12 27 40 27 28 0
35 -4 41 -27z m63 11 c-9 -9 -21 -13 -27 -10 -20 13 -11 26 16 26 25 0 26 -1
11 -16z m-142 -75 c7 -11 -22 -47 -30 -38 -8 7 5 49 15 49 4 0 11 -5 15 -11z
m114 -31 c0 -13 -17 -9 -30 7 -6 8 -8 20 -4 26 5 9 11 7 21 -6 7 -11 13 -22
13 -27z"/>
<path d="M250 1781 c0 -5 7 -11 15 -15 8 -3 15 -15 15 -26 0 -11 -7 -20 -15
-20 -8 0 -15 -7 -15 -15 0 -12 8 -12 50 5 28 11 53 20 55 20 3 0 5 5 5 10 0 6
-21 20 -46 30 -51 22 -64 24 -64 11z"/>
<path d="M3232 1743 l3 -38 51 -3 c56 -3 66 5 57 51 -7 36 -23 34 -23 -3 0
-16 -4 -30 -10 -30 -5 0 -10 14 -10 30 0 17 -4 30 -10 30 -5 0 -10 -13 -10
-30 0 -16 -4 -30 -10 -30 -5 0 -10 14 -10 30 0 21 -5 30 -16 30 -12 0 -14 -9
-12 -37z"/>
<path d="M3230 1616 c0 -59 8 -66 78 -66 50 0 38 17 -17 25 -37 5 -48 10 -44
21 3 9 20 14 49 14 44 0 58 12 28 24 -9 3 -29 6 -45 6 -19 0 -29 5 -29 15 0 8
-4 15 -10 15 -5 0 -10 -24 -10 -54z"/>
<path d="M260 1645 c-17 -20 -4 -65 18 -65 23 0 42 19 42 42 0 10 5 18 10 18
13 0 13 -23 -1 -37 -7 -7 -7 -13 -1 -17 15 -9 34 20 30 46 -4 33 -50 32 -58
-1 -7 -31 -30 -40 -30 -12 0 12 5 21 10 21 6 0 10 5 10 10 0 15 -16 12 -30 -5z"/>
<path d="M272 1558 c-17 -17 -15 -45 7 -67 13 -13 16 -23 9 -35 -15 -27 -1
-65 28 -72 23 -6 24 -8 9 -24 -9 -10 -15 -28 -13 -41 3 -24 33 -48 45 -35 4 4
0 12 -10 17 -23 13 -22 36 4 49 31 17 52 5 45 -26 -5 -19 -3 -25 6 -22 33 11
7 78 -30 78 -13 0 -13 3 1 18 34 37 15 82 -34 82 -25 0 -26 1 -15 35 14 44 30
46 21 3 -7 -31 -6 -32 10 -16 25 24 13 70 -18 66 -16 -2 -23 -11 -25 -30 -3
-29 -16 -36 -28 -17 -3 6 -1 16 5 22 6 6 11 15 11 19 0 12 -14 10 -28 -4z m96
-124 c3 -24 -20 -38 -49 -29 -19 6 -26 35 -12 49 15 15 58 1 61 -20z"/>
<path d="M3220 1521 c-21 -41 -13 -60 30 -67 54 -9 51 -24 -5 -24 -60 0 -60
-25 -2 -63 31 -22 36 -27 17 -23 -68 17 -80 18 -80 7 0 -6 7 -11 16 -11 24 0
12 -35 -14 -38 -22 -3 -32 -22 -11 -22 7 0 0 -9 -15 -21 -14 -11 -26 -28 -26
-38 0 -42 73 -68 100 -37 14 18 10 58 -7 64 -9 2 -11 -5 -7 -27 6 -28 4 -31
-19 -31 -13 0 -30 7 -37 16 -11 13 -9 19 11 40 22 22 29 24 54 14 33 -13 47
-4 22 14 -27 20 -22 49 7 44 29 -6 41 23 23 54 -10 16 -9 22 9 36 32 26 38 53
14 59 -28 7 -25 31 5 39 14 3 25 12 25 20 0 17 -12 18 -28 2 -9 -9 -15 -9 -24
0 -18 18 -46 14 -58 -7z m40 -21 c0 -11 -6 -20 -14 -20 -9 0 -12 7 -9 20 3 11
9 20 14 20 5 0 9 -9 9 -20z m-10 -100 c0 -5 -2 -10 -4 -10 -3 0 -8 5 -11 10
-3 6 -1 10 4 10 6 0 11 -4 11 -10z"/>
<path d="M371 1270 c-24 -11 -41 -23 -38 -26 8 -8 107 26 107 37 0 14 -21 11
-69 -11z"/>
<path d="M352 1233 c-18 -7 -4 -23 20 -23 18 0 19 -4 13 -37 l-7 -38 41 40
c55 52 53 66 -6 64 -27 -1 -54 -4 -61 -6z"/>
<path d="M467 1184 c-3 -3 -3 -12 0 -20 3 -8 -9 -22 -31 -35 -50 -29 -45 -42
6 -19 32 14 44 16 50 7 12 -19 10 -21 -27 -41 -34 -19 -46 -36 -24 -36 9 0 60
27 87 46 2 1 -44 90 -53 102 -1 1 -4 -1 -8 -4z"/>
<path d="M3080 1120 c0 -7 12 -28 26 -47 14 -19 23 -41 20 -49 -9 -22 -35 -28
-54 -12 -27 24 -40 29 -46 19 -5 -8 65 -61 81 -61 5 0 18 16 31 36 18 28 21
39 11 50 -15 18 5 46 27 37 8 -3 14 1 14 11 0 11 -9 16 -32 16 -18 0 -43 3
-55 6 -15 4 -23 2 -23 -6z m50 -30 c0 -5 -2 -10 -4 -10 -3 0 -8 5 -11 10 -3 6
-1 10 4 10 6 0 11 -4 11 -10z"/>
<path d="M474 1035 c-25 -38 -6 -75 39 -75 40 0 57 15 57 50 0 34 -17 50 -52
50 -18 0 -33 -8 -44 -25z m71 -25 c0 -21 -5 -25 -29 -25 -35 0 -43 16 -20 39
23 24 49 16 49 -14z"/>
<path d="M555 959 c-57 -43 -63 -68 -8 -32 26 17 27 17 20 0 -4 -11 -10 -30
-14 -45 -5 -21 -3 -24 12 -19 29 12 74 51 74 66 1 11 -4 10 -19 -4 -26 -24
-35 -14 -22 24 15 42 4 44 -43 10z"/>
<path d="M2975 964 c-9 -14 -32 -43 -51 -64 l-34 -38 41 -37 41 -37 24 28 c13
16 23 32 24 37 0 15 -18 6 -33 -15 -11 -17 -18 -20 -26 -12 -9 8 -8 14 4 24 8
7 15 19 15 28 0 12 -5 11 -24 -7 -34 -32 -39 -12 -7 28 l28 34 31 -19 c18 -10
32 -23 32 -28 0 -6 5 -5 12 2 8 8 5 16 -13 31 -13 11 -28 20 -33 21 -4 0 -5
11 -2 25 8 32 -7 32 -29 -1z"/>
<path d="M637 848 l-37 -33 29 -34 c16 -18 31 -29 34 -23 4 5 -2 17 -13 27
-11 10 -20 22 -20 27 0 13 22 9 41 -8 10 -9 20 -11 23 -6 3 5 -1 15 -9 22 -8
7 -15 19 -15 28 0 12 6 10 25 -8 14 -13 28 -20 32 -17 6 7 -35 57 -46 57 -4 0
-23 -15 -44 -32z"/>
<path d="M2823 796 c-38 -37 -39 -43 -16 -68 16 -18 15 -19 -25 -12 -25 4 -42
3 -42 -3 0 -16 69 -89 70 -74 0 8 -8 23 -17 33 -16 18 -15 19 25 12 23 -4 42
-3 42 1 0 5 -11 23 -24 40 -19 24 -22 35 -13 44 8 8 19 3 44 -21 40 -39 57
-29 19 11 -20 21 -26 35 -21 50 9 28 -4 24 -42 -13z"/>
<path d="M706 783 c-34 -36 -44 -53 -30 -53 3 0 13 8 22 17 16 16 17 14 20
-20 2 -20 7 -37 11 -37 4 0 22 16 41 35 37 38 34 62 -4 26 l-24 -22 5 45 c3
25 3 46 0 46 -3 0 -22 -17 -41 -37z"/>
<path d="M778 716 c-36 -44 -36 -67 -2 -35 l27 24 -6 -37 c-3 -21 -2 -40 3
-43 11 -7 69 54 70 73 0 18 -9 15 -31 -10 l-18 -23 -1 43 c0 23 -3 42 -7 42
-5 0 -20 -16 -35 -34z"/>
<path d="M2679 674 c-43 -34 -46 -39 -39 -70 7 -30 6 -33 -11 -24 -10 6 -21
15 -24 20 -8 13 -35 13 -35 0 0 -19 52 -90 62 -84 6 4 6 10 -1 17 -20 20 -11
28 14 11 25 -16 25 -16 25 11 0 23 2 26 15 15 26 -22 26 -6 0 33 -36 51 -31
59 9 13 l33 -40 32 23 c17 12 28 27 25 32 -4 6 -13 4 -23 -5 -20 -18 -41 -21
-41 -7 0 6 9 16 21 24 14 10 17 17 9 22 -6 4 -20 -1 -30 -10 -11 -10 -20 -12
-24 -6 -4 5 3 16 15 25 12 8 19 20 17 26 -2 7 -23 -4 -49 -26z"/>
<path d="M860 660 c-22 -22 -26 -60 -8 -78 17 -17 58 -15 79 4 17 16 18 15 6
-16 -11 -28 -10 -33 7 -46 11 -8 27 -14 35 -14 16 0 61 60 61 80 0 21 -16 9
-34 -25 -20 -37 -24 -39 -44 -26 -11 7 -10 16 7 50 17 32 18 41 7 41 -8 0 -17
-6 -19 -12 -3 -7 -6 -3 -6 9 -1 22 -35 53 -58 53 -7 0 -22 -9 -33 -20z m55
-35 c0 -24 -5 -31 -23 -33 -27 -4 -38 19 -22 48 17 31 45 22 45 -15z"/>
<path d="M2512 574 c-14 -9 -21 -22 -18 -31 4 -8 1 -11 -5 -8 -18 12 -79 -5
-79 -21 0 -8 -5 -12 -10 -9 -6 4 -26 1 -45 -5 l-34 -11 18 -47 c18 -46 50 -75
36 -33 -4 15 -1 23 10 27 9 4 20 16 25 28 7 20 8 20 20 -6 15 -32 45 -39 35
-9 -4 13 1 24 13 33 10 7 21 20 24 28 4 11 9 8 18 -12 15 -32 21 -33 61 -13
35 19 30 39 -6 23 -28 -12 -48 -2 -25 12 8 5 20 11 25 13 6 3 7 8 3 12 -5 5
-19 3 -33 -3 -20 -9 -25 -9 -25 3 0 7 9 17 20 20 22 7 27 25 7 25 -7 0 -23 -7
-35 -16z m-42 -69 c-7 -8 -16 -15 -21 -15 -5 0 -9 7 -9 15 0 9 9 15 21 15 18
0 19 -2 9 -15z m-80 -30 c0 -8 -9 -15 -20 -15 -22 0 -27 15 -7 23 21 9 27 7
27 -8z"/>
<path d="M1028 535 c-22 -46 -18 -73 6 -40 16 23 36 12 36 -21 0 -13 5 -24 10
-24 6 0 10 11 10 24 0 13 7 26 15 30 23 8 18 42 -10 60 -36 24 -43 21 -67 -29z
m67 4 c4 -6 5 -12 2 -15 -7 -7 -37 7 -37 17 0 13 27 11 35 -2z"/>
<path d="M1155 484 c-17 -42 -19 -64 -5 -64 6 0 10 6 10 14 0 10 12 14 40 13
33 -2 39 -5 34 -20 -7 -23 22 -57 49 -57 11 0 29 7 39 17 17 15 18 15 18 -3 0
-26 19 -44 47 -44 24 0 37 18 48 68 10 47 -12 40 -25 -8 -10 -38 -31 -52 -45
-30 -3 5 -2 26 4 45 11 40 -4 59 -18 23 -6 -14 -10 -17 -10 -7 -2 38 -63 63
-89 37 -9 -9 -12 -7 -12 10 0 15 -9 26 -26 32 -38 15 -42 13 -59 -26z m65 -4
c0 -5 -9 -10 -20 -10 -11 0 -20 5 -20 10 0 6 9 10 20 10 11 0 20 -4 20 -10z
m94 -36 c8 -22 -12 -56 -32 -52 -18 3 -27 30 -18 54 7 19 42 18 50 -2z"/>
<path d="M2240 451 c-14 -28 -13 -46 8 -71 41 -50 113 11 78 65 -21 31 -70 35
-86 6z m65 -36 c0 -38 -31 -47 -44 -13 -12 31 -3 50 23 46 16 -2 21 -10 21
-33z"/>
<path d="M2154 415 c4 -15 10 -40 13 -56 5 -25 9 -28 32 -23 33 9 41 13 41 25
0 5 -11 7 -24 3 -21 -5 -25 -1 -33 32 -4 21 -15 40 -22 42 -11 4 -12 -2 -7
-23z"/>
<path d="M1445 405 c-3 -14 -7 -36 -10 -49 -6 -30 11 -44 20 -16 9 27 23 25
37 -5 15 -33 32 -32 25 2 -3 15 0 34 6 44 15 24 -7 49 -44 49 -22 0 -30 -5
-34 -25z m54 -4 c9 -6 10 -11 2 -15 -13 -8 -31 1 -31 15 0 11 11 11 29 0z"/>
<path d="M2068 423 c-22 -3 -29 -11 -34 -39 -8 -42 -18 -43 -34 -3 -13 30 -15
31 -59 24 -53 -8 -64 -13 -56 -26 10 -15 -12 -10 -25 7 -13 15 -78 17 -72 2 1
-5 2 -28 2 -53 0 -45 0 -45 35 -45 31 0 38 5 50 33 l14 32 1 -33 c0 -32 1 -33
37 -30 20 2 38 9 41 17 3 10 -3 12 -27 6 -24 -5 -31 -3 -31 9 0 11 9 16 31 16
17 0 28 4 24 10 -3 6 -17 10 -31 10 -13 0 -24 5 -24 10 0 6 15 10 33 10 28 0
36 -6 53 -37 26 -50 41 -52 50 -6 11 64 21 70 28 19 6 -37 11 -46 23 -42 8 3
26 6 39 6 14 0 24 6 24 15 0 11 -8 13 -30 8 -37 -7 -41 14 -5 23 37 9 31 28
-6 20 -22 -4 -29 -2 -27 7 3 6 14 13 26 15 12 2 22 8 22 13 0 9 -21 10 -72 2z
m-220 -59 c13 -24 3 -54 -19 -54 -15 0 -19 7 -19 35 0 38 22 48 38 19z"/>
<path d="M1580 393 c0 -10 -3 -35 -6 -55 l-7 -38 37 0 c20 0 36 5 36 10 0 6
-9 10 -20 10 -17 0 -20 7 -20 45 0 25 -4 45 -10 45 -5 0 -10 -8 -10 -17z"/>
<path d="M1656 378 c-3 -13 -6 -38 -6 -55 0 -32 1 -33 46 -33 27 0 43 4 39 10
-3 6 -17 10 -31 10 -15 0 -24 6 -24 16 0 10 7 14 22 12 11 -2 23 3 25 10 3 7
-5 12 -21 12 -14 0 -26 5 -26 10 0 6 14 10 30 10 17 0 30 5 30 10 0 6 -17 10
-39 10 -32 0 -40 -4 -45 -22z"/>
<path d="M1696 3014 c-9 -8 -16 -11 -16 -5 0 20 -130 -119 -137 -147 -4 -17 3
-53 22 -107 26 -75 27 -85 16 -133 -11 -44 -10 -62 8 -139 12 -48 23 -104 26
-123 6 -42 24 -71 32 -52 7 18 33 15 33 -4 0 -14 8 -16 56 -11 30 3 62 11 71
18 12 11 17 10 24 -4 12 -21 33 -23 26 -2 -9 22 14 30 30 10 13 -18 13 -18 28
1 14 19 15 19 21 -3 7 -25 20 -30 27 -10 4 10 7 10 18 0 8 -8 43 -13 92 -13
67 0 78 2 73 15 -4 11 6 20 34 31 47 19 52 33 12 32 -16 -1 -37 4 -48 10 -18
10 -17 11 10 22 16 6 26 13 23 16 -3 3 -14 1 -25 -5 -12 -6 -33 -11 -47 -11
l-27 0 32 -27 c29 -24 31 -28 16 -39 -13 -9 -14 -13 -4 -17 9 -4 8 -6 -3 -6
-9 -1 -19 6 -23 14 -3 10 -19 15 -46 15 -22 0 -40 4 -40 10 0 5 16 8 36 7 22
-1 39 3 41 11 3 6 -2 12 -11 12 -9 0 -16 4 -16 9 0 4 -20 14 -45 21 -24 7 -50
19 -56 26 -16 19 -3 48 17 40 17 -6 88 3 81 10 -2 3 -37 7 -77 9 -78 6 -109
26 -110 73 0 12 -5 22 -10 22 -6 0 -14 8 -17 17 -8 20 -51 59 -99 88 -40 24
-84 79 -108 134 -27 59 -40 51 -16 -10 43 -108 52 -119 117 -138 38 -10 61
-26 51 -36 -2 -2 -25 1 -52 7 -53 11 -124 48 -93 48 22 0 22 3 -7 48 -13 20
-29 54 -36 75 -10 31 -14 36 -26 26 -24 -19 -17 12 11 53 25 36 62 65 71 55 3
-3 5 -24 6 -48 0 -24 5 -53 9 -64 9 -18 9 -17 5 4 -5 26 12 133 22 141 4 3 13
13 21 23 17 21 -2 23 -23 1z m20 -402 c-8 -15 -22 -65 -32 -111 -10 -46 -26
-93 -36 -105 -17 -21 -17 -21 -18 13 0 18 16 75 36 125 43 107 42 106 55 106
5 0 3 -12 -5 -28z m-76 10 c0 -5 -7 -17 -15 -28 -14 -18 -14 -17 -4 9 12 27
19 34 19 19z m30 -17 c-7 -8 -9 -15 -4 -15 4 0 3 -5 -4 -12 -7 -7 -12 -20 -12
-31 0 -10 -4 -16 -9 -12 -6 3 -14 -3 -20 -12 -7 -13 -10 -14 -11 -4 0 20 49
101 62 101 7 0 6 -5 -2 -15z m136 -7 c-4 6 -3 12 2 12 17 0 32 -26 41 -72 4
-25 18 -60 31 -77 25 -36 38 -35 19 1 -11 21 -11 22 5 9 10 -8 24 -27 31 -42
13 -23 13 -29 -1 -39 -8 -7 -16 -11 -18 -9 -2 2 -30 42 -61 89 -32 47 -66 95
-77 106 -15 17 -16 23 -6 27 7 2 19 -1 27 -7 11 -8 13 -8 7 2z m30 -143 c16
-30 16 -30 -17 5 -43 45 -69 84 -69 107 0 17 49 -47 86 -112z m-52 -56 c15
-22 25 -46 23 -52 -3 -10 -57 71 -57 86 0 14 8 6 34 -34z m196 -51 c0 -6 -6
-5 -15 2 -8 7 -15 14 -15 16 0 2 7 1 15 -2 8 -4 15 -11 15 -16z"/>
<path d="M1824 2931 c-21 -16 -49 -38 -61 -50 -30 -28 -33 -27 -33 14 0 56
-20 40 -22 -17 0 -29 -1 -59 -1 -65 1 -7 -3 -13 -7 -13 -5 0 -11 6 -13 13 -3
7 -6 4 -6 -7 -1 -10 28 -47 65 -83 62 -62 66 -65 79 -46 16 22 86 48 108 40 8
-3 19 -23 24 -44 l10 -38 13 27 c14 30 34 28 25 -2 -3 -10 -1 -21 5 -25 6 -4
10 9 10 34 0 23 -3 40 -7 39 -14 -3 -53 13 -53 22 0 5 5 12 11 16 17 10 -29
33 -67 34 -27 0 -34 -6 -48 -35 -10 -20 -24 -35 -34 -35 -26 0 -60 27 -78 61
-14 28 -14 32 6 64 12 19 44 54 73 79 59 51 59 60 1 17z m96 -181 c0 -5 -7
-10 -16 -10 -8 0 -12 5 -9 10 3 6 10 10 16 10 5 0 9 -4 9 -10z"/>
<path d="M1916 2915 c4 -8 7 -15 9 -15 2 0 5 7 9 15 3 9 0 15 -9 15 -9 0 -12
-6 -9 -15z"/>
<path d="M1848 2893 c7 -3 16 -2 19 1 4 3 -2 6 -13 5 -11 0 -14 -3 -6 -6z"/>
<path d="M1941 2607 c-1 -10 -8 -20 -16 -23 -8 -4 -15 -14 -15 -23 0 -13 2
-13 9 -2 5 8 16 11 31 6 19 -6 20 -4 12 12 -5 10 -12 25 -15 33 -4 12 -6 11
-6 -3z"/>
<path d="M2076 2612 c-3 -5 1 -15 9 -22 21 -17 27 -9 10 13 -7 10 -16 14 -19
9z"/>
<path d="M1060 2375 c15 -19 21 -19 46 0 18 13 16 14 -20 15 -33 0 -37 -2 -26
-15z"/>
<path d="M1420 2375 c-10 -12 -10 -15 4 -15 9 0 16 7 16 15 0 8 -2 15 -4 15
-2 0 -9 -7 -16 -15z"/>
<path d="M1835 2128 c-45 -27 -75 -83 -75 -138 0 -146 171 -193 225 -63 26 61
15 123 -32 181 -22 27 -88 39 -118 20z"/>
<path d="M1205 2079 c-20 -12 -48 -19 -83 -19 -42 0 -61 -6 -90 -27 -20 -15
-39 -28 -41 -30 -2 -2 -1 -6 2 -10 4 -3 15 1 26 11 16 15 19 15 24 2 4 -9 3
-15 -1 -13 -9 3 -12 -7 -11 -30 0 -11 3 -13 6 -5 2 6 11 12 19 12 25 0 5 -19
-29 -29 -23 -7 -26 -9 -11 -10 18 -1 21 -6 18 -33 -5 -38 -19 -53 -56 -62 -23
-5 -25 -3 -21 14 3 11 9 23 14 26 12 7 11 24 -1 24 -5 0 -10 -6 -10 -14 0 -20
-29 -48 -42 -40 -7 4 -8 27 -4 62 l7 55 -23 -15 c-43 -29 -57 -60 -64 -143
l-6 -80 54 -57 c45 -49 55 -55 63 -42 9 14 18 15 69 4 67 -14 102 -8 111 19 7
24 35 56 55 64 8 3 -10 6 -40 6 -30 0 -62 -4 -70 -10 -11 -8 -6 -9 18 -4 l33
7 -33 -35 c-32 -34 -43 -36 -91 -21 -32 10 -83 54 -63 54 9 0 16 -4 16 -10 0
-5 7 -10 15 -10 8 0 15 -4 15 -10 0 -5 5 -10 11 -10 5 0 7 5 4 10 -3 6 -1 10
4 10 6 0 11 -6 11 -14 0 -20 25 -27 46 -12 16 12 16 15 1 36 -15 21 -17 22
-23 6 -4 -11 -1 -22 7 -27 11 -7 11 -9 -2 -9 -9 0 -19 10 -22 21 -5 17 -11 20
-29 16 -20 -5 -24 -2 -26 20 -1 15 -8 30 -14 34 -7 5 -10 10 -7 13 8 9 99 24
94 17 -2 -4 0 -13 6 -21 7 -12 9 -10 9 7 0 16 7 22 27 25 28 3 46 28 20 28 -8
0 -17 10 -21 23 -5 18 -8 19 -15 7 -6 -8 -13 -11 -17 -7 -4 3 -1 13 5 21 9 10
9 16 1 21 -16 10 8 35 26 28 11 -4 12 -9 5 -16 -19 -19 -12 -37 14 -37 14 0
26 -3 26 -7 8 -52 6 -64 -11 -73 -10 -5 -25 -8 -32 -7 -7 2 -9 2 -5 -1 5 -2 1
-13 -9 -23 -16 -17 -16 -19 -1 -19 10 0 17 5 17 10 0 6 7 10 15 10 9 0 28 8
42 18 15 9 24 11 20 5 -6 -9 -1 -13 15 -13 13 0 28 -4 34 -10 5 -5 21 -11 34
-13 23 -4 25 -8 22 -53 -2 -27 -8 -61 -14 -77 -8 -20 -7 -39 2 -72 14 -52 25
-54 109 -29 51 15 52 16 36 34 -16 18 -15 22 20 74 20 31 41 59 46 62 5 3 9 9
9 15 0 15 -42 10 -64 -8 -20 -18 -20 -18 -3 9 23 37 22 39 -20 33 l-38 -4 25
21 c16 14 19 19 8 15 -15 -5 -18 0 -18 32 0 24 -8 48 -21 65 -24 31 -20 43 9
27 14 -7 19 -18 15 -33 -4 -18 -3 -20 6 -8 8 11 9 5 5 -25 -5 -40 -5 -40 11
-15 14 21 16 22 12 5 -3 -16 1 -21 17 -23 16 -1 21 4 21 22 0 13 -3 22 -6 20
-4 -2 -10 8 -13 22 -4 15 -17 35 -29 45 -29 24 -10 24 26 0 19 -12 25 -21 17
-26 -8 -5 -5 -13 10 -27 12 -11 20 -28 17 -38 -2 -9 1 -17 8 -17 9 0 10 9 4
31 -14 50 -31 86 -40 86 -4 0 -24 15 -44 34 -33 31 -36 38 -29 70 8 46 -9 69
-45 61 -16 -3 -34 0 -46 9 -24 19 -23 19 -60 -5z m85 -50 c0 6 5 11 10 11 6 0
4 -13 -5 -30 -8 -16 -15 -38 -15 -48 0 -24 -40 -34 -84 -21 -17 5 -53 7 -80 3
-33 -4 -46 -3 -42 4 10 16 66 42 92 42 13 0 26 5 29 10 4 6 12 4 21 -5 9 -8
21 -15 27 -14 9 0 8 2 0 6 -19 7 -15 33 5 33 11 0 13 -3 6 -8 -9 -5 -8 -11 2
-20 8 -7 14 -11 15 -10 12 47 1 62 -36 48 -21 -8 -30 -8 -35 1 -6 8 -13 8 -26
0 -18 -10 -18 -10 1 -11 15 0 16 -3 7 -12 -9 -9 -15 -9 -24 0 -13 13 -42 17
-34 4 5 -9 -52 -7 -61 2 -4 3 6 6 21 6 16 0 25 4 21 10 -4 6 -16 8 -28 5 -18
-5 -19 -4 -6 4 11 7 28 7 49 1 18 -5 40 -6 49 -1 9 5 31 6 49 4 23 -4 32 -1
32 8 1 9 8 5 20 -10 11 -13 20 -18 20 -12z m47 -8 c-1 -12 -6 -17 -16 -13 -9
4 -11 7 -4 9 7 3 9 11 6 20 -4 10 -2 14 5 9 6 -3 10 -15 9 -25z m-8 -34 c6 -8
8 -17 4 -20 -7 -8 -33 11 -33 24 0 13 16 11 29 -4z m32 -44 c12 -14 12 -15 0
-9 -8 5 -16 4 -21 -4 -5 -8 -9 -7 -13 5 -4 9 -3 13 3 10 6 -3 10 -1 10 4 0 15
5 14 21 -6z m-91 -23 c0 -5 -4 -10 -10 -10 -5 0 -10 5 -10 10 0 6 5 10 10 10
6 0 10 -4 10 -10z m-384 -27 c-10 -10 -19 5 -10 18 6 11 8 11 12 0 2 -7 1 -15
-2 -18z m231 -9 c-3 -3 -12 -4 -19 -1 -8 3 -5 6 6 6 11 1 17 -2 13 -5z m-217
-24 c0 -5 -5 -10 -11 -10 -5 0 -7 5 -4 10 3 6 8 10 11 10 2 0 4 -4 4 -10z
m-32 -56 c-3 -56 -3 -57 26 -60 37 -4 47 -14 13 -14 -14 0 -27 -6 -30 -12 -14
-39 -33 52 -23 106 10 54 18 43 14 -20z m462 31 c9 -10 9 -15 1 -15 -6 0 -11
6 -11 13 0 8 -3 7 -10 -3 -5 -8 -12 -11 -15 -8 -8 8 3 28 14 28 5 0 14 -7 21
-15z m-140 -6 c12 -9 12 -10 -4 -5 -10 4 -25 1 -32 -5 -11 -9 -14 -8 -14 5 0
18 28 21 50 5z m75 -36 c-5 -29 -12 -39 -21 -31 -3 4 -1 15 5 27 7 13 8 22 1
26 -5 3 -10 11 -10 17 0 7 6 6 15 -2 9 -7 13 -23 10 -37z m-360 27 c-3 -5 -10
-10 -16 -10 -5 0 -9 5 -9 10 0 6 7 10 16 10 8 0 12 -4 9 -10z m115 0 c0 -13
-11 -13 -30 0 -12 8 -11 10 8 10 12 0 22 -4 22 -10z m-67 -12 c3 -8 -5 -14
-19 -14 -15 -1 -21 3 -17 12 6 17 29 18 36 2z m272 -26 c-6 -7 -34 11 -29 19
3 5 11 3 19 -4 7 -6 12 -13 10 -15z m99 10 c12 -19 18 -82 7 -82 -6 0 -11 13
-11 29 0 17 -4 33 -10 36 -5 3 -10 10 -10 16 0 11 17 12 24 1z m-434 -12 c0
-5 -2 -10 -4 -10 -3 0 -8 5 -11 10 -3 6 -1 10 4 10 6 0 11 -4 11 -10z m410
-47 c0 -21 -3 -24 -9 -14 -5 8 -7 20 -4 28 8 21 13 15 13 -14z m84 -18 c-4 -8
-10 -12 -15 -9 -11 6 -2 24 11 24 5 0 7 -7 4 -15z m-279 -65 c-10 -11 -21 -17
-26 -15 -4 3 2 16 14 30 12 13 24 19 26 14 1 -6 -5 -19 -14 -29z m-184 13 c13
-16 12 -17 -3 -4 -10 7 -18 15 -18 17 0 8 8 3 21 -13z m469 -53 c0 -5 -5 -10
-11 -10 -5 0 -7 5 -4 10 3 6 8 10 11 10 2 0 4 -4 4 -10z m-116 -56 c3 -8 2
-12 -4 -9 -6 3 -10 10 -10 16 0 14 7 11 14 -7z"/>
<path d="M1238 1953 c6 -2 18 -2 25 0 6 3 1 5 -13 5 -14 0 -19 -2 -12 -5z"/>
<path d="M2693 1998 c0 -51 3 -95 7 -98 4 -3 1 -18 -6 -35 -8 -18 -13 -23 -14
-12 0 9 -4 17 -10 17 -13 0 -13 -47 1 -55 6 -4 8 -13 5 -21 -3 -7 3 -18 14
-24 24 -13 37 -69 19 -81 -9 -6 -1 -9 24 -9 20 0 37 5 37 11 0 6 -6 9 -14 6
-8 -3 -18 2 -21 11 -10 23 -24 94 -17 87 3 -2 12 1 20 8 13 10 14 8 8 -10 -4
-13 -1 -33 7 -49 13 -25 14 -19 22 82 10 145 10 142 -24 177 -21 19 -31 39
-31 58 0 18 -5 29 -14 29 -10 0 -13 -21 -13 -92z m57 -28 c0 -5 -2 -10 -4 -10
-3 0 -8 5 -11 10 -3 6 -1 10 4 10 6 0 11 -4 11 -10z"/>
<path d="M2507 2073 c-4 -3 -3 -11 3 -18 6 -7 1 -24 -16 -49 -22 -32 -24 -42
-15 -60 26 -49 41 -199 21 -211 -15 -9 -12 -28 3 -22 10 4 13 -2 9 -19 -3 -17
0 -24 12 -24 17 0 21 12 9 24 -15 14 -11 41 9 69 20 28 20 33 8 95 -11 58 -11
67 3 77 14 10 13 16 -8 52 -15 28 -20 44 -13 51 6 6 8 18 5 26 -7 17 -19 21
-30 9z m23 -83 c0 -5 -4 -10 -10 -10 -5 0 -10 5 -10 10 0 6 5 10 10 10 6 0 10
-4 10 -10z m19 -192 c1 -5 -3 -8 -9 -8 -5 0 -10 12 -9 28 0 24 1 25 9 7 5 -11
9 -23 9 -27z"/>
<path d="M2864 2065 c-4 -8 -1 -21 4 -28 18 -21 4 -182 -27 -329 -7 -34 -6
-38 11 -38 13 0 18 6 17 18 -1 9 3 30 9 45 7 16 12 35 12 43 0 8 4 14 9 14 12
0 77 -90 74 -101 -2 -5 2 -9 7 -9 22 0 19 27 -10 83 -32 63 -38 101 -17 122
21 21 9 70 -29 114 -19 21 -34 49 -34 60 0 24 -18 28 -26 6z"/>
<path d="M2336 2051 c-4 -5 -3 -16 0 -24 3 -8 -2 -37 -11 -63 -9 -27 -12 -50
-7 -53 5 -3 13 -33 17 -67 6 -60 6 -61 -25 -88 -18 -15 -30 -29 -28 -32 3 -2
24 13 46 35 23 22 43 37 45 33 3 -4 5 -29 5 -55 1 -57 6 -67 35 -67 20 0 20 1
2 14 -14 10 -19 27 -20 62 0 27 -5 56 -9 63 -9 13 -17 121 -17 209 0 29 -4 42
-14 42 -8 0 -16 -4 -19 -9z m21 -123 c-3 -8 -6 -5 -6 6 -1 11 2 17 5 13 3 -3
4 -12 1 -19z"/>
<path d="M988 1966 c-24 -18 -23 -48 2 -66 14 -10 16 -16 7 -22 -8 -5 -7 -8 6
-8 24 0 22 32 -4 48 l-21 13 23 25 c24 26 16 32 -13 10z"/>
<path d="M2830 1910 c0 -6 7 -10 15 -10 8 0 15 2 15 4 0 2 -7 6 -15 10 -8 3
-15 1 -15 -4z"/>
<path d="M1337 1879 c7 -7 15 -10 18 -7 3 3 -2 9 -12 12 -14 6 -15 5 -6 -5z"/>
<path d="M1328 1263 c-10 -2 -18 -11 -18 -20 0 -11 6 -14 23 -9 12 3 25 6 30
6 4 0 7 7 7 15 0 15 -9 17 -42 8z"/>
<path d="M1813 1248 c3 -13 9 -40 12 -60 7 -37 6 -38 -22 -38 -17 0 -38 9 -48
20 -12 13 -29 20 -44 18 -32 -4 -39 -25 -9 -31 18 -3 16 -5 -8 -6 -20 0 -34 5
-38 14 -3 8 -12 15 -19 15 -8 0 -20 -7 -27 -15 -18 -22 -68 -20 -66 3 1 12 -8
18 -31 20 -29 3 -33 0 -34 -20 0 -23 0 -23 -9 -2 -14 35 -34 42 -28 10 5 -24
3 -26 -28 -26 -32 0 -34 3 -40 39 l-6 40 -34 -33 c-41 -40 -42 -46 -5 -46 16
0 31 -6 34 -14 5 -12 49 -14 247 -15 l240 -1 -2 68 c-1 37 -7 70 -13 74 -19
14 -27 8 -22 -14z"/>
<path d="M1868 1248 c-7 -21 3 -128 12 -128 13 0 18 34 12 89 -4 48 -15 66
-24 39z"/>
<path d="M2115 1247 c-10 -8 -14 -16 -9 -19 13 -8 54 9 54 22 0 14 -23 13 -45
-3z"/>
<path d="M2122 1198 c-7 -7 -12 -21 -12 -31 0 -17 -2 -17 -20 4 l-21 24 6 -33
c9 -44 -16 -72 -62 -72 -18 0 -33 -4 -33 -10 0 -5 6 -10 13 -10 6 0 21 -3 33
-6 14 -4 31 4 54 26 31 29 38 31 111 32 80 1 87 4 69 39 -13 23 -33 25 -50 4
-19 -23 -34 -18 -47 15 -12 32 -22 37 -41 18z"/>
<path d="M1421 1099 c-15 -6 -21 -13 -15 -19 13 -13 54 -1 54 16 0 16 -6 16
-39 3z"/>
<path d="M1707 1104 c-8 -8 1 -24 14 -24 5 0 9 7 9 15 0 15 -12 20 -23 9z"/>
<path d="M1786 992 c-2 -4 -1 -14 5 -22 5 -8 9 -32 9 -52 0 -37 -1 -38 -35
-38 l-35 0 0 56 c0 40 -3 54 -12 51 -8 -2 -12 -20 -11 -48 1 -24 -1 -36 -3
-26 -8 25 -30 15 -26 -12 3 -21 1 -22 -65 -19 -64 3 -68 4 -66 26 3 28 -13 29
-22 1 -4 -13 0 -27 11 -40 14 -15 31 -19 91 -19 58 0 73 3 73 15 0 20 16 19
24 0 8 -23 319 -18 323 5 2 8 -2 22 -7 30 -8 12 -11 13 -19 1 -7 -11 -9 -11
-14 0 -4 10 -6 9 -6 -3 -1 -10 -8 -18 -17 -18 -9 0 -23 8 -30 18 -13 16 -13
16 -14 0 0 -24 -22 -23 -38 2 -10 17 -19 20 -47 14 l-35 -6 0 46 c0 33 -4 46
-14 46 -8 0 -17 -4 -20 -8z m87 -109 c-7 -2 -19 -2 -25 0 -7 3 -2 5 12 5 14 0
19 -2 13 -5z"/>
<path d="M1603 960 c-13 -5 -23 -15 -23 -21 0 -7 9 -9 23 -5 12 3 25 6 30 6 4
0 7 7 7 15 0 17 -5 18 -37 5z"/>
</g>
</svg>
